<?xml version="1.0" encoding="UTF-8" standalone="no"?>
<svg viewBox="0 0 512 512" xmlns="http://www.w3.org/2000/svg" xmlns:xlink="http://www.w3.org/1999/xlink">
<defs>
<filter id="filter3856">
<feGaussianBlur stdDeviation="15.3342"/>
</filter>
<linearGradient id="linearGradient3994">
<stop offset="0" stop-color="#3e718e"/>
<stop offset="1" stop-color="#8ab4cc"/>
</linearGradient>
<linearGradient gradientUnits="userSpaceOnUse" id="linearGradient4049" x1="409.56912" x2="178.5921" y1="1099.60967" y2="-68.28605">
<stop offset="0" stop-color="#6dd9ff"/>
<stop offset=".4374" stop-color="#39beff"/>
<stop offset=".972" stop-color="#00214d"/>
<stop offset="1" stop-color="#000d25"/>
</linearGradient>
<linearGradient gradientTransform="matrix(1,0,0,.89844,0,51.41497)" gradientUnits="userSpaceOnUse" id="linearGradient4053" x1="215.28703" x2="281.85291" y1="191.17091" y2="443.27246">
<stop offset="0" stop-color="#6dd9ff"/>
<stop offset=".4374" stop-color="#39beff"/>
<stop offset=".9217" stop-color="#00214d"/>
<stop offset="1" stop-color="#000d25"/>
</linearGradient>
<linearGradient gradientUnits="userSpaceOnUse" id="linearGradient4055" x1="271.74607" x2="270.25067" y1="190.69982" y2="98.97642">
<stop offset="0" stop-color="#006ad4"/>
<stop offset=".25" stop-color="#5582af"/>
<stop offset=".5" stop-color="#004080" stop-opacity=".3511"/>
<stop offset=".75" stop-color="#5582af"/>
<stop offset="1" stop-color="#0064c9"/>
</linearGradient>
<linearGradient gradientUnits="userSpaceOnUse" id="linearGradient4057" x1="45.23493" x2="114.69942">
<stop offset="0" stop-color="#f1f1f1"/>
<stop offset="1" stop-color="#8e8e8e" stop-opacity=".1862"/>
</linearGradient>
<linearGradient gradientUnits="userSpaceOnUse" id="linearGradient4047" x1="26.89234" x2="453.84079" xlink:href="#linearGradient3994"/>
<linearGradient gradientUnits="userSpaceOnUse" id="linearGradient4051" x1="45.74719" x2="497.96484" xlink:href="#linearGradient3994"/>
</defs>
<g transform="matrix(1.04856,0,0,1.05605,-17.22365,-40.48227)">
<path d="m31.92141,119.35458c4.62134-12.7057 3.61661-13.06873 10.91269-17.76139 22.45518-14.44263 70.66528-21.10257 117.7822-27.48617 12.7878-1.73255 26.06639-3.31471 39.59163-4.74174 38.2262-4.03317 78.42266-6.82704 115.07811-8.27396 12.66314-.49986 24.90368-.83896 36.4944-1.01288 56.06974-.8413 89.64802-2.18497 96.86633,9.57556 11.99602,19.5447-1.45694,307.94643-1.45694,307.94643s-396.83686,128.18741-401.87207,128.71299c-7.61363.79473-13.63042-14.94872-15.70948-42.31175-7.44073-97.9296-1.76081-333.44644 2.31312-344.6471z" fill="none" opacity=".2454" stroke="#00172e" stroke-linecap="round" stroke-linejoin="bevel" stroke-width="7.27816"/>
<path d="m35.24178,122.47515c4.56945-12.6467 3.576-15.71127 11.47048-20.38214 22.76995-13.47213 69.87177-21.00458 116.45959-27.35853 12.64421-1.7245 25.77369-3.29932 39.14706-4.71971 37.79694-4.01444 77.54203-6.79533 113.78587-8.23553 12.52095-.49754 24.62404-.83507 36.0846-1.00817 55.44012-.8374 88.64135-2.17483 95.7786,9.53109 11.86132,19.45394-1.44058,306.51634-1.44058,306.51634s-397.14952,128.68223-402.08865,129.49504c-3.08181.50715-7.64273-5.00918-9.64952-17.25752-12.3255-75.22826-3.97956-354.31432.45254-366.58087z" fill="url(#linearGradient4047)" opacity=".696" stroke="#000d1b" stroke-linecap="round" stroke-linejoin="bevel" stroke-width="1.9006"/>
<path d="m46.09857,505.5174c0,0 404.26808-129.58198 406.24361-126.05077 5.72011,10.22453 10.0016,3.85522 19.44783,10.08406 5.20547,3.43248-425.69144,117.40729-425.69144,117.40729z" fill="none" stroke="#000" stroke-linecap="round" stroke-linejoin="bevel" stroke-width=".7"/>
<path d="m41.05653,126.54587c4.56945-12.57433 3.576-15.62136 11.47048-20.26551 22.76995-13.39504 69.87178-20.88438 116.4596-27.20197 12.64421-1.71463 25.77369-3.28044 39.14706-4.69271 37.79694-3.99146 77.54203-6.75645 113.78587-8.18841 12.52095-.49469 24.62404-.83029 36.0846-1.00241 55.44012-.8326 88.64135-2.16238 95.7786,9.47655 11.86132,19.34262-1.44058,304.76241-1.44058,304.76241s-400.58419,125.23717-405.52332,126.04532c-2.04284.33425-4.48743-3.21773-5.99114-8.71127-14.6976-53.69507-4.44656-357.35618.22882-370.22201z" fill="url(#linearGradient4049)" stroke="#181818" stroke-linecap="round" stroke-linejoin="bevel" stroke-width="1.60021"/>
<path d="m36.33593,163.10487 64.67033-6.5904 357.27023-31.97311 .66835,260.29219c0,0-414.05667,113.94484-419.12779,104.60957-1.90717-291.18088-9.46568-230.48046-3.48113-326.33825z" fill="#e4eeee" fill-rule="evenodd" opacity=".99" stroke="#123b3b" stroke-width=".43243"/>
<path d="m38.2433,168.78642 64.67034-6.5904 359.33103-32.65517-1.39245,260.97425c0,0-414.05668,113.94484-419.12779,104.60957-1.90717-291.18088-9.46568-230.48046-3.48113-326.33825z" fill="#e4eeee" fill-rule="evenodd" opacity=".99" stroke="#123b3b" stroke-width=".43243"/>
<path d="m43.90325,172.57412 63.80706-6.5904 358.65595-30.60899-5.49545,258.92807c0,0-408.52949,113.94484-413.5329,104.60957-1.88171-291.18088-9.33932-230.48046-3.43466-326.33825z" fill="#e4eeee" fill-rule="evenodd" stroke="#123b3b" stroke-width=".52457"/>
<path d="m103.5355,219.63621c-4.16251-21.94126 5.39687-44.82488 9.29916-52.98904 1.25162-2.61859.0997-.66345.0997-.66345l357.55346-21.74222-9.5968,250.0613c0,0-402.50978,113.94484-407.43948,104.60957s-5.06742-267.18136-4.16137-268.04954 1.85732-1.66272 2.85378-2.3904c11.31342-8.26171 28.45304-7.90404 51.39151-8.83622z" fill="#f1f8f8" fill-rule="evenodd" opacity=".7656" stroke="#123b3b" stroke-width=".52457"/>
<path d="m104.61546,218.28771c15.12212-2.81952 40.12715-5.25558 70.03188-17.62269 13.34091-5.51714 22.14114-12.17136 29.2521-24.36926 1.8681-3.20449 13.21365-14.15497 23.71527-17.54153 25.22938-8.13598 107.34345-14.69228 152.48568-18.74226 12.25739-1.09968 17.14736-1.35558 29.6041,10.09561 10.83657,29.90329 71.0357-5.68304 86.15167,19.2962 .45087,5.59667 2.08782,4.60097.96274,17.4326-3.49438,39.85364-7.77203,131.78448-25.2422,203.65919-1.17276,4.82491-5.05672,10.15602-10.33064,11.54836-139.93219,36.94256-414.74058,103.13429-414.74058,103.13429s11.83164-10.53501 14.85852-17.56615c33.75664-78.41327 24.86343-243.45194 28.10518-254.30231s15.14628-15.02205 15.14628-15.02205z" fill="url(#linearGradient4051)" stroke="#272727" stroke-linecap="round" stroke-linejoin="bevel" stroke-width="1.51657"/>
<path d="m108.43022,222.07541c15.12212-2.81952 40.12715-5.25558 70.03188-17.62269 13.34091-5.51714 22.14114-12.17136 29.2521-24.36926 1.8681-3.20449 13.21365-14.15497 23.71527-17.54153 25.22938-8.13598 107.34345-14.69228 152.48568-18.74226 12.25739-1.09968 17.14736-1.35558 29.6041,10.09561 10.83657,29.90329 71.0357-5.68304 86.15167,19.2962 .45087,5.59667 2.08782,4.60097.96274,17.4326-3.49438,39.85364-7.77203,131.78448-25.2422,203.65919-1.17276,4.82491-5.05672,10.15602-10.33064,11.54836-139.93219,36.94256-416.80138,100.40605-416.80138,100.40605s13.4559-8.20509 16.91932-14.83791c39.53106-75.70621 24.86343-243.45194 28.10518-254.30231s15.14629-15.02205 15.14629-15.02205z" fill="url(#linearGradient4053)" stroke="#2b2b2b" stroke-linecap="round" stroke-linejoin="bevel" stroke-width="1.51657"/>
<path d="m508.60103,129.46933c-12.45069,85.7453-13.89544,163.71458-33.20957,252.15817-1.17276,5.37034-5.05672,11.3041-10.33064,12.85383-139.93219,41.1187-416.80138,111.75635-416.80138,111.75635s11.32169-10.96732 16.91932-16.51525c23.04967-39.38772 48.41911-74.11406 75.30066-105.19402 108.06724-124.94538 240.57243-190.96014 345.04211-263.99036 8.8516-6.18777 21.11664-4.63203 23.07951,8.93128z" fill="#fff" filter="url(#filter3856)" opacity=".4505" transform="matrix(1,0,0,.94548,0,27.59824)"/>
<path d="m152.26873,118.19543h236.64727a11.69585,11.69585 0 0,1 11.69585,11.69585v24.98659a11.69585,11.69585 0 0,1 -11.69585,11.69585h-236.64727a11.69585,11.69585 0 0,1 -11.69585-11.69585v-24.98659a11.69585,11.69585 0 0,1 11.69585-11.69585" fill="url(#linearGradient4055)" fill-rule="evenodd" stroke="#003060" stroke-linecap="round" stroke-linejoin="bevel" stroke-opacity=".6189" stroke-width="1.15431" transform="matrix(.9945,-.1047,-.07988,.9968,0,0)"/><text font-family="Sans" font-size="38.104" font-weight="bold" letter-spacing="0" stroke="#000d1b" stroke-opacity=".6189" stroke-width="2.56581" transform="matrix(.90219,-.08872,-.05039,1.11336,0,0)" word-spacing="0" x="156.7433" xml:space="preserve" y="141.33896">
        <tspan stroke-width="2.56581" x="156.7433" y="141.33896">DOCUMENTS</tspan>
      </text><text fill="#fff" font-family="Sans" font-size="38.104" font-weight="bold" letter-spacing="0" transform="matrix(.90219,-.08872,-.05039,1.11336,0,0)" word-spacing="0" x="158.69879" xml:space="preserve" y="140.38939">
        <tspan x="158.69879" y="140.38939">DOCUMENTS</tspan>
      </text>
<path d="m45.82739,234.0428c3.49988-3.42649 7.61576-6.22191 12.09117-8.21205 8.32575-3.70233 17.61292-4.54371 26.71577-4.94806 6.69567-.29742 13.40064-.38525 20.1018-.26332-1.43321-3.58303-2.35228-7.37126-2.72035-11.21271-1.10865-11.57077 2.78122-23.05945 7.8237-33.53252 1.33846-2.77994 2.76183-5.51899 4.26747-8.21205-12.03398,8.88756-23.8912,18.01446-35.56227,27.37349-9.40047,7.53823-18.81133,15.36849-25.60483,25.32047-2.90568,4.2566-5.29917,8.86248-7.11245,13.68675" fill="url(#linearGradient4057)"/>
</g>
</svg>
